# xmcd
#
# Track frame offsets:
#	150
#	16302
#	34767
#	82625
#	126100
#	161510
#
# Disc length: 2631 seconds
# Revision: 0
# Processed by: cddbd v1.5.2PL0 Copyright (c) Steve Scherf et al.
# Submitted via: dBpowerAMP V12.0
#
DISCID=370a4506
DTITLE=Sunscreem - Looking At You
DYEAR=1996
DGENRE=House
TTITLE0=Looking At You [Jimmy Gomez Radio Edit]
TTITLE1=Looking At You [Mendelsohn Edit]
TTITLE2=Looking At You [Jimmy Gomez Club Mix]
TTITLE3=Looking At You [Jimmy Gomez 6 A.M. Dub]
TTITLE4=Looking At You [Corvette Mix]
TTITLE5=When [K-Klassix Mix]
EXTD=
EXTT0=
EXTT1=
EXTT2=
EXTT3=
EXTT4=
EXTT5=
PLAYORDER=
